# xmcd CD database file
#
# Track frame offsets:
#	150
#	26228
#	41245
#	60758
#	78931
#	99842
#	118487
#	133680
#	149921
#	170406
#	185330
#	204857
#	219451
#	240781
#	253824
#	270372
#	287245
#	308631
#
# Disc length: 4463 seconds
#
# Revision: 1
# Processed by: cddbd v1.5.2PL0 Copyright (c) Steve Scherf et al.
# Submitted via: CDex 1.70beta2
#
DISCID=02116d12
DTITLE=Krystyna Prońko - Poranne łzy i inne tęsknoty
DYEAR=2007
DGENRE=Jazz
TTITLE0=Poranne łzy
TTITLE1=Małe tęsknoty
TTITLE2=Opadają mi rece (nieprzytomny mix)
TTITLE3=Modlitwa o miłość prawdziwą
TTITLE4=Jesteś lekiem na całe zło
TTITLE5=Jutro zaczyna się tu sezon
TTITLE6=Pieśń V
TTITLE7=Deszcz w Cisnej
TTITLE8=Bożek gorzelny
TTITLE9=Psalm stojących w kolejce
TTITLE10=Pierwszy siwy włos
TTITLE11=Uratuj mnie, uratuj siebie
TTITLE12=Subtelna gra
TTITLE13=Senna kołysanka
TTITLE14=Niech moje serce kołysze ciebie do snu
TTITLE15=W jakim obcym domu
TTITLE16=Złość (nieprzytomny mix)
TTITLE17=Chodzi po głowie
EXTD=YEAR: 2007
EXTT0=
EXTT1=
EXTT2=
EXTT3=
EXTT4=
EXTT5=
EXTT6=
EXTT7=
EXTT8=
EXTT9=
EXTT10=
EXTT11=
EXTT12=
EXTT13=
EXTT14=
EXTT15=
EXTT16=
EXTT17=
PLAYORDER=
